<svg width="101" height="33" viewBox="0 0 101 33" fill="none" xmlns="http://www.w3.org/2000/svg">
<path d="M1.616 24C1.57333 24 1.552 23.936 1.552 23.808C1.552 23.68 1.57333 23.616 1.616 23.616C2.40533 23.616 2.992 23.5627 3.376 23.456C3.78133 23.3493 4.08 23.1467 4.272 22.848C4.464 22.528 4.624 22.048 4.752 21.408L7.344 6.592C7.42933 6.08 7.472 5.76 7.472 5.632C7.472 5.29067 7.38667 5.056 7.216 4.928C7.04533 4.8 6.75733 4.736 6.352 4.736H5.968C5.30667 4.736 4.61333 4.97066 3.888 5.44C3.16267 5.888 2.512 6.496 1.936 7.264C1.36 8.01067 0.944 8.832 0.688 9.728C0.666667 9.792 0.592 9.81333 0.464 9.792C0.357334 9.77067 0.314667 9.728 0.336 9.664C0.506667 9.04533 0.762667 8.02133 1.104 6.592C1.44533 5.16267 1.69067 4.064 1.84 3.296C1.86133 3.232 1.936 3.21067 2.064 3.232C2.192 3.232 2.24533 3.264 2.224 3.328C2.16 3.776 2.576 4 3.472 4C5.05067 4.064 7.00267 4.096 9.328 4.096C10.416 4.096 11.6213 4.07467 12.944 4.032L14.96 4C15.6 4 16.08 3.94667 16.4 3.84C16.72 3.73333 16.944 3.52 17.072 3.2C17.1147 3.136 17.1893 3.11467 17.296 3.136C17.4027 3.136 17.4453 3.17867 17.424 3.264C17.232 3.94667 16.9653 5.056 16.624 6.592C16.304 8.10667 16.112 9.13067 16.048 9.664C16.0267 9.74933 15.952 9.792 15.824 9.792C15.696 9.77067 15.6427 9.71733 15.664 9.632C15.728 9.26933 15.76 8.928 15.76 8.608C15.76 7.49867 15.4507 6.58133 14.832 5.856C14.2133 5.10933 13.4133 4.736 12.432 4.736H12.08C11.5253 4.736 11.152 4.864 10.96 5.12C10.7893 5.35467 10.64 5.86666 10.512 6.656L7.92 21.408C7.83467 21.92 7.792 22.2507 7.792 22.4C7.792 22.8907 7.96267 23.2213 8.304 23.392C8.66667 23.5413 9.328 23.616 10.288 23.616C10.3307 23.616 10.352 23.68 10.352 23.808C10.352 23.936 10.3307 24 10.288 24C9.54133 24 8.95467 23.9893 8.528 23.968L5.936 23.936L3.44 23.968C3.01333 23.9893 2.40533 24 1.616 24ZM18.1185 24.448C16.7105 24.448 15.6332 24 14.8865 23.104C14.1612 22.1867 13.7985 21.0027 13.7985 19.552C13.7985 18.912 13.8518 18.336 13.9585 17.824C14.1932 16.544 14.6518 15.4027 15.3345 14.4C16.0385 13.3973 16.8812 12.6187 17.8625 12.064C18.8438 11.5093 19.8998 11.232 21.0305 11.232C22.4598 11.232 23.5478 11.6693 24.2945 12.544C25.0625 13.3973 25.4465 14.5493 25.4465 16C25.4465 16.576 25.3825 17.184 25.2545 17.824C24.9772 19.232 24.4652 20.4373 23.7185 21.44C22.9932 22.4213 22.1292 23.168 21.1265 23.68C20.1452 24.192 19.1425 24.448 18.1185 24.448ZM19.2065 23.648C19.8892 23.648 20.4758 23.2533 20.9665 22.464C21.4785 21.6747 21.8518 20.5973 22.0865 19.232C22.2358 18.4 22.3105 17.5573 22.3105 16.704C22.3105 15.3173 22.0972 14.1867 21.6705 13.312C21.2652 12.4373 20.6998 12 19.9745 12C19.3345 12 18.7585 12.3733 18.2465 13.12C17.7558 13.8667 17.3825 14.976 17.1265 16.448C16.9772 17.28 16.9025 18.1227 16.9025 18.976C16.9025 20.3627 17.1052 21.4933 17.5105 22.368C17.9158 23.2213 18.4812 23.648 19.2065 23.648ZM31.181 24.448C29.773 24.448 28.6957 24 27.949 23.104C27.2237 22.1867 26.861 21.0027 26.861 19.552C26.861 18.912 26.9143 18.336 27.021 17.824C27.2557 16.544 27.7143 15.4027 28.397 14.4C29.101 13.3973 29.9437 12.6187 30.925 12.064C31.9063 11.5093 32.9623 11.232 34.093 11.232C35.5223 11.232 36.6103 11.6693 37.357 12.544C38.125 13.3973 38.509 14.5493 38.509 16C38.509 16.576 38.445 17.184 38.317 17.824C38.0397 19.232 37.5277 20.4373 36.781 21.44C36.0557 22.4213 35.1917 23.168 34.189 23.68C33.2077 24.192 32.205 24.448 31.181 24.448ZM32.269 23.648C32.9517 23.648 33.5383 23.2533 34.029 22.464C34.541 21.6747 34.9143 20.5973 35.149 19.232C35.2983 18.4 35.373 17.5573 35.373 16.704C35.373 15.3173 35.1597 14.1867 34.733 13.312C34.3277 12.4373 33.7623 12 33.037 12C32.397 12 31.821 12.3733 31.309 13.12C30.8183 13.8667 30.445 14.976 30.189 16.448C30.0397 17.28 29.965 18.1227 29.965 18.976C29.965 20.3627 30.1677 21.4933 30.573 22.368C30.9783 23.2213 31.5437 23.648 32.269 23.648ZM42.1955 24.288C41.1715 24.288 40.6595 23.68 40.6595 22.464C40.6595 22.0373 40.7022 21.6 40.7875 21.152L43.7315 5.152C43.7955 4.72533 43.8275 4.37333 43.8275 4.096C43.8275 3.47733 43.6248 3.168 43.2195 3.168C42.9635 3.168 42.5155 3.31733 41.8755 3.616H41.8435C41.7368 3.616 41.6728 3.56267 41.6515 3.456C41.6302 3.328 41.6622 3.25333 41.7475 3.232L46.7075 0.799999H46.7715C46.8568 0.799999 46.9315 0.831999 46.9955 0.895998C47.0808 0.959998 47.1128 1.01333 47.0915 1.056L43.5075 21.152C43.4435 21.472 43.4115 21.7387 43.4115 21.952C43.4115 22.4213 43.5715 22.656 43.8915 22.656C44.1048 22.656 44.3395 22.56 44.5955 22.368C44.8728 22.176 45.2035 21.8987 45.5875 21.536C45.6302 21.4933 45.6728 21.472 45.7155 21.472C45.7795 21.472 45.8328 21.5147 45.8755 21.6C45.9182 21.664 45.9075 21.728 45.8435 21.792C45.1182 22.6453 44.4782 23.2747 43.9235 23.68C43.3688 24.0853 42.7928 24.288 42.1955 24.288ZM58.8698 11.328C59.4031 11.328 59.8191 11.52 60.1178 11.904C60.4164 12.288 60.5658 12.8427 60.5658 13.568C60.5658 15.1467 59.7018 17.5253 57.9738 20.704C56.2458 23.8827 54.2724 26.72 52.0538 29.216C49.8351 31.7333 48.0218 32.992 46.6137 32.992C45.3551 32.992 44.7257 32.4907 44.7257 31.488C44.7257 30.8907 44.8964 30.4213 45.2377 30.08C45.5577 29.76 46.0164 29.6 46.6137 29.6C46.9337 29.6 47.3711 29.728 47.9258 29.984C47.9898 30.0053 48.1498 30.0693 48.4058 30.176C48.6618 30.2827 48.9178 30.336 49.1738 30.336C49.5364 30.336 49.8991 30.208 50.2618 29.952C50.8164 29.5893 51.5098 28.864 52.3418 27.776V26.272C52.3418 22.112 52.0431 18.8907 51.4458 16.608C50.8698 14.304 50.0911 13.152 49.1098 13.152C48.8538 13.152 48.5871 13.248 48.3098 13.44C48.0538 13.632 47.8404 13.8667 47.6698 14.144C47.6484 14.208 47.5844 14.24 47.4778 14.24C47.3284 14.24 47.2644 14.176 47.2858 14.048C47.6484 13.28 48.2031 12.64 48.9498 12.128C49.6964 11.616 50.3791 11.36 50.9978 11.36C51.8084 11.36 52.5124 11.84 53.1098 12.8C53.7284 13.7387 54.1871 15.04 54.4858 16.704C54.8058 18.3467 54.9658 20.192 54.9658 22.24C54.9658 23.0507 54.9551 23.6693 54.9338 24.096C55.7658 22.7733 56.4804 21.5467 57.0778 20.416C57.6964 19.264 58.0698 18.4213 58.1978 17.888C58.3258 17.376 58.3898 16.9387 58.3898 16.576C58.3898 16.128 58.3258 15.7653 58.1978 15.488C58.0698 15.2107 57.8884 14.8907 57.6538 14.528C57.4404 14.208 57.2804 13.952 57.1738 13.76C57.0671 13.5467 57.0138 13.28 57.0138 12.96C57.0138 12.4693 57.1844 12.0747 57.5258 11.776C57.8671 11.4773 58.3151 11.328 58.8698 11.328ZM67.7378 24.384C66.0098 24.384 64.3778 24.0213 62.8418 23.296C62.6284 23.1467 62.5644 22.944 62.6497 22.688L63.6738 18.176C63.6738 18.0693 63.7271 18.016 63.8338 18.016C63.9618 18.016 64.0364 18.0693 64.0578 18.176C64.8471 21.8027 66.3618 23.616 68.6018 23.616C69.6471 23.616 70.4898 23.2533 71.1298 22.528C71.7911 21.7813 72.1218 20.8 72.1218 19.584C72.1218 18.56 71.8231 17.6747 71.2258 16.928C70.6498 16.1813 69.8071 15.3813 68.6978 14.528C67.8871 13.9093 67.2471 13.3867 66.7778 12.96C66.3084 12.5333 65.9138 12.032 65.5938 11.456C65.2738 10.88 65.1138 10.24 65.1138 9.536C65.1138 9.23733 65.1458 8.928 65.2098 8.608C65.5511 7.008 66.3938 5.78133 67.7378 4.928C69.1031 4.07467 70.6391 3.648 72.3458 3.648C73.6044 3.648 74.8631 3.904 76.1218 4.416C76.4204 4.56533 76.5378 4.74667 76.4738 4.96L75.9938 9.12C75.9724 9.184 75.9084 9.216 75.8018 9.216C75.7164 9.216 75.6631 9.184 75.6418 9.12C75.3004 7.62667 74.7564 6.45333 74.0098 5.6C73.2631 4.74667 72.4204 4.32 71.4818 4.32C70.7564 4.32 70.1591 4.52267 69.6898 4.928C69.2204 5.312 68.8791 5.78133 68.6658 6.336C68.4524 6.86933 68.3458 7.392 68.3458 7.904C68.3458 8.544 68.4951 9.12 68.7938 9.632C69.0924 10.144 69.4444 10.592 69.8498 10.976C70.2551 11.3387 70.8631 11.84 71.6738 12.48C72.9324 13.4613 73.8924 14.3573 74.5538 15.168C75.2151 15.9787 75.5458 16.9387 75.5458 18.048C75.5458 18.4107 75.5244 18.688 75.4818 18.88C75.1831 20.5013 74.3618 21.824 73.0178 22.848C71.6738 23.872 69.9138 24.384 67.7378 24.384ZM85.265 11.232C86.0757 11.232 86.705 11.3707 87.153 11.648C87.601 11.9253 87.825 12.3093 87.825 12.8C87.825 13.76 87.1103 14.6667 85.681 15.52C84.273 16.352 82.5663 16.96 80.561 17.344C80.497 17.8133 80.465 18.272 80.465 18.72C80.465 20 80.7317 21.0347 81.265 21.824C81.7983 22.592 82.5877 22.976 83.633 22.976C84.081 22.976 84.561 22.9013 85.073 22.752C85.6063 22.5813 86.0863 22.3253 86.513 21.984H86.545C86.609 21.984 86.6623 22.016 86.705 22.08C86.769 22.144 86.7797 22.1973 86.737 22.24C85.969 22.9867 85.1583 23.5307 84.305 23.872C83.4517 24.2133 82.5983 24.384 81.745 24.384C80.273 24.384 79.1637 23.936 78.417 23.04C77.6917 22.144 77.329 21.0133 77.329 19.648C77.329 19.1787 77.3823 18.656 77.489 18.08C77.7023 16.928 78.1717 15.8293 78.897 14.784C79.6437 13.7387 80.5717 12.8853 81.681 12.224C82.7903 11.5627 83.985 11.232 85.265 11.232ZM84.593 13.632C84.6143 13.5467 84.625 13.4187 84.625 13.248C84.625 12.8853 84.529 12.608 84.337 12.416C84.1663 12.2027 83.921 12.096 83.601 12.096C82.9183 12.096 82.3103 12.5333 81.777 13.408C81.265 14.2827 80.881 15.424 80.625 16.832C83.0783 16.192 84.401 15.1253 84.593 13.632ZM93.1185 24.448C91.7105 24.448 90.6332 24 89.8865 23.104C89.1612 22.1867 88.7985 21.0027 88.7985 19.552C88.7985 18.912 88.8518 18.336 88.9585 17.824C89.1932 16.544 89.6518 15.4027 90.3345 14.4C91.0385 13.3973 91.8812 12.6187 92.8625 12.064C93.8438 11.5093 94.8998 11.232 96.0305 11.232C97.4598 11.232 98.5478 11.6693 99.2945 12.544C100.063 13.3973 100.447 14.5493 100.447 16C100.447 16.576 100.383 17.184 100.255 17.824C99.9772 19.232 99.4652 20.4373 98.7185 21.44C97.9932 22.4213 97.1292 23.168 96.1265 23.68C95.1452 24.192 94.1425 24.448 93.1185 24.448ZM94.2065 23.648C94.8892 23.648 95.4758 23.2533 95.9665 22.464C96.4785 21.6747 96.8518 20.5973 97.0865 19.232C97.2358 18.4 97.3105 17.5573 97.3105 16.704C97.3105 15.3173 97.0972 14.1867 96.6705 13.312C96.2652 12.4373 95.6998 12 94.9745 12C94.3345 12 93.7585 12.3733 93.2465 13.12C92.7558 13.8667 92.3825 14.976 92.1265 16.448C91.9772 17.28 91.9025 18.1227 91.9025 18.976C91.9025 20.3627 92.1052 21.4933 92.5105 22.368C92.9158 23.2213 93.4812 23.648 94.2065 23.648Z" fill="#EC0868"/>
</svg>
