<svg width="76" height="25" viewBox="0 0 76 25" fill="none" xmlns="http://www.w3.org/2000/svg">
<path d="M1.712 18C1.68 18 1.664 17.952 1.664 17.856C1.664 17.76 1.68 17.712 1.712 17.712C2.304 17.712 2.744 17.672 3.032 17.592C3.336 17.512 3.56 17.36 3.704 17.136C3.848 16.896 3.968 16.536 4.064 16.056L6.008 4.944C6.072 4.56 6.104 4.32 6.104 4.224C6.104 3.968 6.04 3.792 5.912 3.696C5.784 3.6 5.568 3.552 5.264 3.552H4.976C4.48 3.552 3.96 3.728 3.416 4.08C2.872 4.416 2.384 4.872 1.952 5.448C1.52 6.008 1.208 6.624 1.016 7.296C1 7.344 0.944 7.36 0.848 7.344C0.768 7.328 0.736 7.296 0.752 7.248C0.88 6.784 1.072 6.016 1.328 4.944C1.584 3.872 1.768 3.048 1.88 2.472C1.896 2.424 1.952 2.408 2.048 2.424C2.144 2.424 2.184 2.448 2.168 2.496C2.12 2.832 2.432 3 3.104 3C4.288 3.048 5.752 3.072 7.496 3.072C8.312 3.072 9.216 3.056 10.208 3.024L11.72 3C12.2 3 12.56 2.96 12.8 2.88C13.04 2.8 13.208 2.64 13.304 2.4C13.336 2.352 13.392 2.336 13.472 2.352C13.552 2.352 13.584 2.384 13.568 2.448C13.424 2.96 13.224 3.792 12.968 4.944C12.728 6.08 12.584 6.848 12.536 7.248C12.52 7.312 12.464 7.344 12.368 7.344C12.272 7.328 12.232 7.288 12.248 7.224C12.296 6.952 12.32 6.696 12.32 6.456C12.32 5.624 12.088 4.936 11.624 4.392C11.16 3.832 10.56 3.552 9.824 3.552H9.56C9.144 3.552 8.864 3.648 8.72 3.84C8.592 4.016 8.48 4.4 8.384 4.992L6.44 16.056C6.376 16.44 6.344 16.688 6.344 16.8C6.344 17.168 6.472 17.416 6.728 17.544C7 17.656 7.496 17.712 8.216 17.712C8.248 17.712 8.264 17.76 8.264 17.856C8.264 17.952 8.248 18 8.216 18C7.656 18 7.216 17.992 6.896 17.976L4.952 17.952L3.08 17.976C2.76 17.992 2.304 18 1.712 18ZM14.0889 18.336C13.0329 18.336 12.2249 18 11.6649 17.328C11.1209 16.64 10.8489 15.752 10.8489 14.664C10.8489 14.184 10.8889 13.752 10.9689 13.368C11.1449 12.408 11.4889 11.552 12.0009 10.8C12.5289 10.048 13.1609 9.464 13.8969 9.048C14.6329 8.632 15.4249 8.424 16.2729 8.424C17.3449 8.424 18.1609 8.752 18.7209 9.408C19.2969 10.048 19.5849 10.912 19.5849 12C19.5849 12.432 19.5369 12.888 19.4409 13.368C19.2329 14.424 18.8489 15.328 18.2889 16.08C17.7449 16.816 17.0969 17.376 16.3449 17.76C15.6089 18.144 14.8569 18.336 14.0889 18.336ZM14.9049 17.736C15.4169 17.736 15.8569 17.44 16.2249 16.848C16.6089 16.256 16.8889 15.448 17.0649 14.424C17.1769 13.8 17.2329 13.168 17.2329 12.528C17.2329 11.488 17.0729 10.64 16.7529 9.984C16.4489 9.328 16.0249 9 15.4809 9C15.0009 9 14.5689 9.28 14.1849 9.84C13.8169 10.4 13.5369 11.232 13.3449 12.336C13.2329 12.96 13.1769 13.592 13.1769 14.232C13.1769 15.272 13.3289 16.12 13.6329 16.776C13.9369 17.416 14.3609 17.736 14.9049 17.736ZM23.8858 18.336C22.8298 18.336 22.0218 18 21.4618 17.328C20.9178 16.64 20.6458 15.752 20.6458 14.664C20.6458 14.184 20.6858 13.752 20.7658 13.368C20.9418 12.408 21.2858 11.552 21.7978 10.8C22.3258 10.048 22.9578 9.464 23.6938 9.048C24.4298 8.632 25.2218 8.424 26.0698 8.424C27.1418 8.424 27.9578 8.752 28.5178 9.408C29.0938 10.048 29.3818 10.912 29.3818 12C29.3818 12.432 29.3338 12.888 29.2378 13.368C29.0298 14.424 28.6458 15.328 28.0858 16.08C27.5418 16.816 26.8938 17.376 26.1418 17.76C25.4058 18.144 24.6538 18.336 23.8858 18.336ZM24.7018 17.736C25.2138 17.736 25.6538 17.44 26.0218 16.848C26.4058 16.256 26.6858 15.448 26.8618 14.424C26.9738 13.8 27.0298 13.168 27.0298 12.528C27.0298 11.488 26.8698 10.64 26.5498 9.984C26.2458 9.328 25.8218 9 25.2778 9C24.7978 9 24.3658 9.28 23.9818 9.84C23.6138 10.4 23.3338 11.232 23.1418 12.336C23.0298 12.96 22.9738 13.592 22.9738 14.232C22.9738 15.272 23.1258 16.12 23.4298 16.776C23.7338 17.416 24.1578 17.736 24.7018 17.736ZM32.1466 18.216C31.3786 18.216 30.9946 17.76 30.9946 16.848C30.9946 16.528 31.0266 16.2 31.0906 15.864L33.2986 3.864C33.3466 3.544 33.3706 3.28 33.3706 3.072C33.3706 2.608 33.2186 2.376 32.9146 2.376C32.7226 2.376 32.3866 2.488 31.9066 2.712H31.8826C31.8026 2.712 31.7546 2.672 31.7386 2.592C31.7226 2.496 31.7466 2.44 31.8106 2.424L35.5306 0.599999H35.5786C35.6426 0.599999 35.6986 0.623999 35.7466 0.671999C35.8106 0.719999 35.8346 0.759999 35.8186 0.792L33.1306 15.864C33.0826 16.104 33.0586 16.304 33.0586 16.464C33.0586 16.816 33.1786 16.992 33.4186 16.992C33.5786 16.992 33.7546 16.92 33.9466 16.776C34.1546 16.632 34.4026 16.424 34.6906 16.152C34.7226 16.12 34.7546 16.104 34.7866 16.104C34.8346 16.104 34.8746 16.136 34.9066 16.2C34.9386 16.248 34.9306 16.296 34.8826 16.344C34.3386 16.984 33.8586 17.456 33.4426 17.76C33.0266 18.064 32.5946 18.216 32.1466 18.216ZM44.6523 8.496C45.0523 8.496 45.3643 8.64 45.5883 8.928C45.8123 9.216 45.9243 9.632 45.9243 10.176C45.9243 11.36 45.2763 13.144 43.9803 15.528C42.6843 17.912 41.2043 20.04 39.5403 21.912C37.8763 23.8 36.5163 24.744 35.4603 24.744C34.5163 24.744 34.0443 24.368 34.0443 23.616C34.0443 23.168 34.1723 22.816 34.4283 22.56C34.6683 22.32 35.0123 22.2 35.4603 22.2C35.7003 22.2 36.0283 22.296 36.4443 22.488C36.4923 22.504 36.6123 22.552 36.8043 22.632C36.9963 22.712 37.1883 22.752 37.3803 22.752C37.6523 22.752 37.9243 22.656 38.1963 22.464C38.6123 22.192 39.1323 21.648 39.7563 20.832V19.704C39.7563 16.584 39.5323 14.168 39.0843 12.456C38.6523 10.728 38.0683 9.864 37.3323 9.864C37.1403 9.864 36.9403 9.936 36.7323 10.08C36.5403 10.224 36.3803 10.4 36.2523 10.608C36.2363 10.656 36.1883 10.68 36.1083 10.68C35.9963 10.68 35.9483 10.632 35.9643 10.536C36.2363 9.96 36.6523 9.48 37.2123 9.096C37.7723 8.712 38.2843 8.52 38.7483 8.52C39.3563 8.52 39.8843 8.88 40.3323 9.6C40.7963 10.304 41.1403 11.28 41.3643 12.528C41.6043 13.76 41.7243 15.144 41.7243 16.68C41.7243 17.288 41.7163 17.752 41.7003 18.072C42.3243 17.08 42.8603 16.16 43.3083 15.312C43.7723 14.448 44.0523 13.816 44.1483 13.416C44.2443 13.032 44.2923 12.704 44.2923 12.432C44.2923 12.096 44.2443 11.824 44.1483 11.616C44.0523 11.408 43.9163 11.168 43.7403 10.896C43.5803 10.656 43.4603 10.464 43.3803 10.32C43.3003 10.16 43.2603 9.96 43.2603 9.72C43.2603 9.352 43.3883 9.056 43.6443 8.832C43.9003 8.608 44.2363 8.496 44.6523 8.496ZM51.3033 18.288C50.0073 18.288 48.7833 18.016 47.6313 17.472C47.4713 17.36 47.4233 17.208 47.4873 17.016L48.2553 13.632C48.2553 13.552 48.2953 13.512 48.3753 13.512C48.4713 13.512 48.5273 13.552 48.5433 13.632C49.1353 16.352 50.2713 17.712 51.9513 17.712C52.7353 17.712 53.3673 17.44 53.8473 16.896C54.3433 16.336 54.5913 15.6 54.5913 14.688C54.5913 13.92 54.3673 13.256 53.9193 12.696C53.4873 12.136 52.8553 11.536 52.0233 10.896C51.4153 10.432 50.9353 10.04 50.5833 9.72C50.2313 9.4 49.9353 9.024 49.6953 8.592C49.4553 8.16 49.3353 7.68 49.3353 7.152C49.3353 6.928 49.3593 6.696 49.4073 6.456C49.6633 5.256 50.2953 4.336 51.3033 3.696C52.3273 3.056 53.4793 2.736 54.7593 2.736C55.7033 2.736 56.6473 2.928 57.5913 3.312C57.8153 3.424 57.9033 3.56 57.8553 3.72L57.4953 6.84C57.4793 6.888 57.4313 6.912 57.3513 6.912C57.2873 6.912 57.2473 6.888 57.2313 6.84C56.9753 5.72 56.5673 4.84 56.0073 4.2C55.4473 3.56 54.8153 3.24 54.1113 3.24C53.5673 3.24 53.1193 3.392 52.7673 3.696C52.4153 3.984 52.1593 4.336 51.9993 4.752C51.8393 5.152 51.7593 5.544 51.7593 5.928C51.7593 6.408 51.8713 6.84 52.0953 7.224C52.3193 7.608 52.5833 7.944 52.8873 8.232C53.1913 8.504 53.6473 8.88 54.2553 9.36C55.1993 10.096 55.9193 10.768 56.4153 11.376C56.9113 11.984 57.1593 12.704 57.1593 13.536C57.1593 13.808 57.1433 14.016 57.1113 14.16C56.8873 15.376 56.2713 16.368 55.2633 17.136C54.2553 17.904 52.9353 18.288 51.3033 18.288ZM64.4488 8.424C65.0568 8.424 65.5288 8.528 65.8648 8.736C66.2008 8.944 66.3688 9.232 66.3688 9.6C66.3688 10.32 65.8328 11 64.7608 11.64C63.7048 12.264 62.4248 12.72 60.9208 13.008C60.8728 13.36 60.8488 13.704 60.8488 14.04C60.8488 15 61.0488 15.776 61.4488 16.368C61.8488 16.944 62.4408 17.232 63.2248 17.232C63.5608 17.232 63.9208 17.176 64.3047 17.064C64.7048 16.936 65.0648 16.744 65.3848 16.488H65.4088C65.4568 16.488 65.4968 16.512 65.5288 16.56C65.5768 16.608 65.5848 16.648 65.5528 16.68C64.9768 17.24 64.3688 17.648 63.7288 17.904C63.0888 18.16 62.4488 18.288 61.8088 18.288C60.7048 18.288 59.8728 17.952 59.3128 17.28C58.7688 16.608 58.4968 15.76 58.4968 14.736C58.4968 14.384 58.5368 13.992 58.6168 13.56C58.7768 12.696 59.1288 11.872 59.6728 11.088C60.2328 10.304 60.9288 9.664 61.7608 9.168C62.5928 8.672 63.4888 8.424 64.4488 8.424ZM63.9448 10.224C63.9608 10.16 63.9688 10.064 63.9688 9.936C63.9688 9.664 63.8968 9.456 63.7528 9.312C63.6248 9.152 63.4408 9.072 63.2008 9.072C62.6888 9.072 62.2328 9.4 61.8328 10.056C61.4488 10.712 61.1608 11.568 60.9688 12.624C62.8088 12.144 63.8008 11.344 63.9448 10.224ZM70.3389 18.336C69.2829 18.336 68.4749 18 67.9149 17.328C67.3709 16.64 67.0989 15.752 67.0989 14.664C67.0989 14.184 67.1389 13.752 67.2189 13.368C67.3949 12.408 67.7389 11.552 68.2509 10.8C68.7789 10.048 69.4109 9.464 70.1469 9.048C70.8829 8.632 71.6749 8.424 72.5229 8.424C73.5949 8.424 74.4109 8.752 74.9709 9.408C75.5469 10.048 75.8349 10.912 75.8349 12C75.8349 12.432 75.7869 12.888 75.6909 13.368C75.4829 14.424 75.0989 15.328 74.5389 16.08C73.9949 16.816 73.3469 17.376 72.5949 17.76C71.8589 18.144 71.1069 18.336 70.3389 18.336ZM71.1549 17.736C71.6669 17.736 72.1069 17.44 72.4749 16.848C72.8589 16.256 73.1389 15.448 73.3149 14.424C73.4269 13.8 73.4829 13.168 73.4829 12.528C73.4829 11.488 73.3229 10.64 73.0029 9.984C72.6989 9.328 72.2749 9 71.7309 9C71.2509 9 70.8189 9.28 70.4349 9.84C70.0669 10.4 69.7869 11.232 69.5949 12.336C69.4829 12.96 69.4269 13.592 69.4269 14.232C69.4269 15.272 69.5789 16.12 69.8829 16.776C70.1869 17.416 70.6109 17.736 71.1549 17.736Z" fill="#EC0868"/>
</svg>
