<svg width="127" height="41" viewBox="0 0 127 41" fill="none" xmlns="http://www.w3.org/2000/svg">
<path d="M2.52 29C2.46667 29 2.44 28.92 2.44 28.76C2.44 28.6 2.46667 28.52 2.52 28.52C3.50667 28.52 4.24 28.4533 4.72 28.32C5.22667 28.1867 5.6 27.9333 5.84 27.56C6.08 27.16 6.28 26.56 6.44 25.76L9.68 7.24C9.78667 6.6 9.84 6.2 9.84 6.04C9.84 5.61333 9.73333 5.32 9.52 5.16C9.30667 5 8.94667 4.92 8.44 4.92H7.96C7.13333 4.92 6.26667 5.21333 5.36 5.8C4.45333 6.36 3.64 7.12 2.92 8.08C2.2 9.01333 1.68 10.04 1.36 11.16C1.33333 11.24 1.24 11.2667 1.08 11.24C0.946667 11.2133 0.893334 11.16 0.92 11.08C1.13333 10.3067 1.45333 9.02667 1.88 7.24C2.30667 5.45333 2.61333 4.08 2.8 3.12C2.82667 3.04 2.92 3.01333 3.08 3.04C3.24 3.04 3.30667 3.08 3.28 3.16C3.2 3.72 3.72 4 4.84 4C6.81333 4.08 9.25333 4.12 12.16 4.12C13.52 4.12 15.0267 4.09333 16.68 4.04L19.2 4C20 4 20.6 3.93333 21 3.8C21.4 3.66666 21.68 3.4 21.84 3C21.8933 2.92 21.9867 2.89333 22.12 2.92C22.2533 2.92 22.3067 2.97333 22.28 3.08C22.04 3.93333 21.7067 5.32 21.28 7.24C20.88 9.13333 20.64 10.4133 20.56 11.08C20.5333 11.1867 20.44 11.24 20.28 11.24C20.12 11.2133 20.0533 11.1467 20.08 11.04C20.16 10.5867 20.2 10.16 20.2 9.76C20.2 8.37333 19.8133 7.22666 19.04 6.32C18.2667 5.38666 17.2667 4.92 16.04 4.92H15.6C14.9067 4.92 14.44 5.08 14.2 5.4C13.9867 5.69333 13.8 6.33333 13.64 7.32L10.4 25.76C10.2933 26.4 10.24 26.8133 10.24 27C10.24 27.6133 10.4533 28.0267 10.88 28.24C11.3333 28.4267 12.16 28.52 13.36 28.52C13.4133 28.52 13.44 28.6 13.44 28.76C13.44 28.92 13.4133 29 13.36 29C12.4267 29 11.6933 28.9867 11.16 28.96L7.92 28.92L4.8 28.96C4.26667 28.9867 3.50667 29 2.52 29ZM23.1481 29.56C21.3881 29.56 20.0415 29 19.1081 27.88C18.2015 26.7333 17.7481 25.2533 17.7481 23.44C17.7481 22.64 17.8148 21.92 17.9481 21.28C18.2415 19.68 18.8148 18.2533 19.6681 17C20.5481 15.7467 21.6015 14.7733 22.8281 14.08C24.0548 13.3867 25.3748 13.04 26.7881 13.04C28.5748 13.04 29.9348 13.5867 30.8681 14.68C31.8281 15.7467 32.3081 17.1867 32.3081 19C32.3081 19.72 32.2281 20.48 32.0681 21.28C31.7215 23.04 31.0815 24.5467 30.1481 25.8C29.2415 27.0267 28.1615 27.96 26.9081 28.6C25.6815 29.24 24.4281 29.56 23.1481 29.56ZM24.5081 28.56C25.3615 28.56 26.0948 28.0667 26.7081 27.08C27.3481 26.0933 27.8148 24.7467 28.1081 23.04C28.2948 22 28.3881 20.9467 28.3881 19.88C28.3881 18.1467 28.1215 16.7333 27.5881 15.64C27.0815 14.5467 26.3748 14 25.4681 14C24.6681 14 23.9481 14.4667 23.3081 15.4C22.6948 16.3333 22.2281 17.72 21.9081 19.56C21.7215 20.6 21.6281 21.6533 21.6281 22.72C21.6281 24.4533 21.8815 25.8667 22.3881 26.96C22.8948 28.0267 23.6015 28.56 24.5081 28.56ZM39.4763 29.56C37.7163 29.56 36.3696 29 35.4363 27.88C34.5296 26.7333 34.0763 25.2533 34.0763 23.44C34.0763 22.64 34.1429 21.92 34.2763 21.28C34.5696 19.68 35.1429 18.2533 35.9963 17C36.8763 15.7467 37.9296 14.7733 39.1563 14.08C40.3829 13.3867 41.7029 13.04 43.1163 13.04C44.9029 13.04 46.2629 13.5867 47.1963 14.68C48.1563 15.7467 48.6363 17.1867 48.6363 19C48.6363 19.72 48.5563 20.48 48.3963 21.28C48.0496 23.04 47.4096 24.5467 46.4763 25.8C45.5696 27.0267 44.4896 27.96 43.2363 28.6C42.0096 29.24 40.7563 29.56 39.4763 29.56ZM40.8363 28.56C41.6896 28.56 42.4229 28.0667 43.0363 27.08C43.6763 26.0933 44.1429 24.7467 44.4363 23.04C44.6229 22 44.7163 20.9467 44.7163 19.88C44.7163 18.1467 44.4496 16.7333 43.9163 15.64C43.4096 14.5467 42.7029 14 41.7963 14C40.9963 14 40.2763 14.4667 39.6363 15.4C39.0229 16.3333 38.5563 17.72 38.2363 19.56C38.0496 20.6 37.9563 21.6533 37.9563 22.72C37.9563 24.4533 38.2096 25.8667 38.7163 26.96C39.2229 28.0267 39.9296 28.56 40.8363 28.56ZM53.2444 29.36C51.9644 29.36 51.3244 28.6 51.3244 27.08C51.3244 26.5467 51.3777 26 51.4844 25.44L55.1644 5.44C55.2444 4.90667 55.2844 4.46667 55.2844 4.12C55.2844 3.34667 55.031 2.96 54.5244 2.96C54.2044 2.96 53.6444 3.14667 52.8444 3.52H52.8044C52.671 3.52 52.591 3.45333 52.5644 3.32C52.5377 3.16 52.5777 3.06667 52.6844 3.04L58.8844 -9.53674e-07H58.9644C59.071 -9.53674e-07 59.1644 0.0399985 59.2444 0.119998C59.351 0.199998 59.391 0.266665 59.3644 0.32L54.8844 25.44C54.8044 25.84 54.7644 26.1733 54.7644 26.44C54.7644 27.0267 54.9644 27.32 55.3644 27.32C55.631 27.32 55.9244 27.2 56.2444 26.96C56.591 26.72 57.0044 26.3733 57.4844 25.92C57.5377 25.8667 57.591 25.84 57.6444 25.84C57.7244 25.84 57.791 25.8933 57.8444 26C57.8977 26.08 57.8844 26.16 57.8044 26.24C56.8977 27.3067 56.0977 28.0933 55.4044 28.6C54.711 29.1067 53.991 29.36 53.2444 29.36ZM74.0872 13.16C74.7539 13.16 75.2739 13.4 75.6472 13.88C76.0205 14.36 76.2072 15.0533 76.2072 15.96C76.2072 17.9333 75.1272 20.9067 72.9672 24.88C70.8072 28.8533 68.3405 32.4 65.5672 35.52C62.7939 38.6667 60.5272 40.24 58.7672 40.24C57.1939 40.24 56.4072 39.6133 56.4072 38.36C56.4072 37.6133 56.6205 37.0267 57.0472 36.6C57.4472 36.2 58.0205 36 58.7672 36C59.1672 36 59.7139 36.16 60.4072 36.48C60.4872 36.5067 60.6872 36.5867 61.0072 36.72C61.3272 36.8533 61.6472 36.92 61.9672 36.92C62.4205 36.92 62.8739 36.76 63.3272 36.44C64.0205 35.9867 64.8872 35.08 65.9272 33.72V31.84C65.9272 26.64 65.5539 22.6133 64.8072 19.76C64.0872 16.88 63.1139 15.44 61.8872 15.44C61.5672 15.44 61.2339 15.56 60.8872 15.8C60.5672 16.04 60.3005 16.3333 60.0872 16.68C60.0605 16.76 59.9805 16.8 59.8472 16.8C59.6605 16.8 59.5805 16.72 59.6072 16.56C60.0605 15.6 60.7539 14.8 61.6872 14.16C62.6205 13.52 63.4739 13.2 64.2472 13.2C65.2605 13.2 66.1405 13.8 66.8872 15C67.6605 16.1733 68.2339 17.8 68.6072 19.88C69.0072 21.9333 69.2072 24.24 69.2072 26.8C69.2072 27.8133 69.1939 28.5867 69.1672 29.12C70.2072 27.4667 71.1005 25.9333 71.8472 24.52C72.6205 23.08 73.0872 22.0267 73.2472 21.36C73.4072 20.72 73.4872 20.1733 73.4872 19.72C73.4872 19.16 73.4072 18.7067 73.2472 18.36C73.0872 18.0133 72.8605 17.6133 72.5672 17.16C72.3005 16.76 72.1005 16.44 71.9672 16.2C71.8339 15.9333 71.7672 15.6 71.7672 15.2C71.7672 14.5867 71.9805 14.0933 72.4072 13.72C72.8339 13.3467 73.3939 13.16 74.0872 13.16ZM85.1722 29.48C83.0122 29.48 80.9722 29.0267 79.0522 28.12C78.7855 27.9333 78.7055 27.68 78.8122 27.36L80.0922 21.72C80.0922 21.5867 80.1589 21.52 80.2922 21.52C80.4522 21.52 80.5455 21.5867 80.5722 21.72C81.5589 26.2533 83.4522 28.52 86.2522 28.52C87.5589 28.52 88.6122 28.0667 89.4122 27.16C90.2389 26.2267 90.6522 25 90.6522 23.48C90.6522 22.2 90.2789 21.0933 89.5322 20.16C88.8122 19.2267 87.7589 18.2267 86.3722 17.16C85.3589 16.3867 84.5589 15.7333 83.9722 15.2C83.3855 14.6667 82.8922 14.04 82.4922 13.32C82.0922 12.6 81.8922 11.8 81.8922 10.92C81.8922 10.5467 81.9322 10.16 82.0122 9.76C82.4389 7.76 83.4922 6.22667 85.1722 5.16C86.8789 4.09333 88.7989 3.56 90.9322 3.56C92.5055 3.56 94.0789 3.88 95.6522 4.52C96.0255 4.70667 96.1722 4.93333 96.0922 5.2L95.4922 10.4C95.4655 10.48 95.3855 10.52 95.2522 10.52C95.1455 10.52 95.0789 10.48 95.0522 10.4C94.6255 8.53333 93.9455 7.06667 93.0122 6C92.0789 4.93333 91.0255 4.4 89.8522 4.4C88.9455 4.4 88.1989 4.65333 87.6122 5.16C87.0255 5.64 86.5989 6.22667 86.3322 6.92C86.0655 7.58667 85.9322 8.24 85.9322 8.88C85.9322 9.68 86.1189 10.4 86.4922 11.04C86.8655 11.68 87.3055 12.24 87.8122 12.72C88.3189 13.1733 89.0789 13.8 90.0922 14.6C91.6655 15.8267 92.8655 16.9467 93.6922 17.96C94.5189 18.9733 94.9322 20.1733 94.9322 21.56C94.9322 22.0133 94.9055 22.36 94.8522 22.6C94.4789 24.6267 93.4522 26.28 91.7722 27.56C90.0922 28.84 87.8922 29.48 85.1722 29.48ZM107.081 13.04C108.095 13.04 108.881 13.2133 109.441 13.56C110.001 13.9067 110.281 14.3867 110.281 15C110.281 16.2 109.388 17.3333 107.601 18.4C105.841 19.44 103.708 20.2 101.201 20.68C101.121 21.2667 101.081 21.84 101.081 22.4C101.081 24 101.415 25.2933 102.081 26.28C102.748 27.24 103.735 27.72 105.041 27.72C105.601 27.72 106.201 27.6267 106.841 27.44C107.508 27.2267 108.108 26.9067 108.641 26.48H108.681C108.761 26.48 108.828 26.52 108.881 26.6C108.961 26.68 108.975 26.7467 108.921 26.8C107.961 27.7333 106.948 28.4133 105.881 28.84C104.815 29.2667 103.748 29.48 102.681 29.48C100.841 29.48 99.4546 28.92 98.5213 27.8C97.6146 26.68 97.1613 25.2667 97.1613 23.56C97.1613 22.9733 97.2279 22.32 97.3613 21.6C97.6279 20.16 98.2146 18.7867 99.1213 17.48C100.055 16.1733 101.215 15.1067 102.601 14.28C103.988 13.4533 105.481 13.04 107.081 13.04ZM106.241 16.04C106.268 15.9333 106.281 15.7733 106.281 15.56C106.281 15.1067 106.161 14.76 105.921 14.52C105.708 14.2533 105.401 14.12 105.001 14.12C104.148 14.12 103.388 14.6667 102.721 15.76C102.081 16.8533 101.601 18.28 101.281 20.04C104.348 19.24 106.001 17.9067 106.241 16.04ZM116.898 29.56C115.138 29.56 113.791 29 112.858 27.88C111.951 26.7333 111.498 25.2533 111.498 23.44C111.498 22.64 111.565 21.92 111.698 21.28C111.991 19.68 112.565 18.2533 113.418 17C114.298 15.7467 115.351 14.7733 116.578 14.08C117.805 13.3867 119.125 13.04 120.538 13.04C122.325 13.04 123.685 13.5867 124.618 14.68C125.578 15.7467 126.058 17.1867 126.058 19C126.058 19.72 125.978 20.48 125.818 21.28C125.471 23.04 124.831 24.5467 123.898 25.8C122.991 27.0267 121.911 27.96 120.658 28.6C119.431 29.24 118.178 29.56 116.898 29.56ZM118.258 28.56C119.111 28.56 119.845 28.0667 120.458 27.08C121.098 26.0933 121.565 24.7467 121.858 23.04C122.045 22 122.138 20.9467 122.138 19.88C122.138 18.1467 121.871 16.7333 121.338 15.64C120.831 14.5467 120.125 14 119.218 14C118.418 14 117.698 14.4667 117.058 15.4C116.445 16.3333 115.978 17.72 115.658 19.56C115.471 20.6 115.378 21.6533 115.378 22.72C115.378 24.4533 115.631 25.8667 116.138 26.96C116.645 28.0267 117.351 28.56 118.258 28.56Z" fill="#EC0868"/>
</svg>
