<svg width="151" height="49" viewBox="0 0 151 49" fill="none" xmlns="http://www.w3.org/2000/svg">
<path d="M2.424 35C2.36 35 2.328 34.904 2.328 34.712C2.328 34.52 2.36 34.424 2.424 34.424C3.608 34.424 4.488 34.344 5.064 34.184C5.672 34.024 6.12 33.72 6.408 33.272C6.696 32.792 6.936 32.072 7.128 31.112L11.016 8.888C11.144 8.12 11.208 7.64 11.208 7.448C11.208 6.936 11.08 6.584 10.824 6.392C10.568 6.2 10.136 6.104 9.528 6.104H8.952C7.96 6.104 6.92 6.456 5.832 7.16C4.744 7.832 3.768 8.744 2.904 9.896C2.04 11.016 1.416 12.248 1.032 13.592C1 13.688 0.888 13.72 0.696 13.688C0.536 13.656 0.472 13.592 0.504 13.496C0.76 12.568 1.144 11.032 1.656 8.888C2.168 6.744 2.536 5.096 2.76 3.944C2.792 3.848 2.904 3.816 3.096 3.848C3.288 3.848 3.368 3.896 3.336 3.992C3.24 4.664 3.864 5 5.208 5C7.576 5.096 10.504 5.144 13.992 5.144C15.624 5.144 17.432 5.112 19.416 5.048L22.44 5C23.4 5 24.12 4.92 24.6 4.76C25.08 4.6 25.416 4.28 25.608 3.8C25.672 3.704 25.784 3.672 25.944 3.704C26.104 3.704 26.168 3.768 26.136 3.896C25.848 4.92 25.448 6.584 24.936 8.888C24.456 11.16 24.168 12.696 24.072 13.496C24.04 13.624 23.928 13.688 23.736 13.688C23.544 13.656 23.464 13.576 23.496 13.448C23.592 12.904 23.64 12.392 23.64 11.912C23.64 10.248 23.176 8.872 22.248 7.784C21.32 6.664 20.12 6.104 18.648 6.104H18.12C17.288 6.104 16.728 6.296 16.44 6.68C16.184 7.032 15.96 7.8 15.768 8.984L11.88 31.112C11.752 31.88 11.688 32.376 11.688 32.6C11.688 33.336 11.944 33.832 12.456 34.088C13 34.312 13.992 34.424 15.432 34.424C15.496 34.424 15.528 34.52 15.528 34.712C15.528 34.904 15.496 35 15.432 35C14.312 35 13.432 34.984 12.792 34.952L8.904 34.904L5.16 34.952C4.52 34.984 3.608 35 2.424 35ZM27.1778 35.672C25.0658 35.672 23.4498 35 22.3298 33.656C21.2418 32.28 20.6978 30.504 20.6978 28.328C20.6978 27.368 20.7778 26.504 20.9378 25.736C21.2898 23.816 21.9778 22.104 23.0018 20.6C24.0578 19.096 25.3218 17.928 26.7938 17.096C28.2658 16.264 29.8498 15.848 31.5458 15.848C33.6898 15.848 35.3218 16.504 36.4418 17.816C37.5938 19.096 38.1698 20.824 38.1698 23C38.1698 23.864 38.0738 24.776 37.8818 25.736C37.4658 27.848 36.6978 29.656 35.5778 31.16C34.4898 32.632 33.1938 33.752 31.6898 34.52C30.2178 35.288 28.7138 35.672 27.1778 35.672ZM28.8098 34.472C29.8338 34.472 30.7138 33.88 31.4498 32.696C32.2178 31.512 32.7778 29.896 33.1298 27.848C33.3538 26.6 33.4658 25.336 33.4658 24.056C33.4658 21.976 33.1458 20.28 32.5058 18.968C31.8978 17.656 31.0498 17 29.9618 17C29.0018 17 28.1378 17.56 27.3698 18.68C26.6338 19.8 26.0738 21.464 25.6898 23.672C25.4658 24.92 25.3538 26.184 25.3538 27.464C25.3538 29.544 25.6578 31.24 26.2658 32.552C26.8738 33.832 27.7218 34.472 28.8098 34.472ZM46.7715 35.672C44.6595 35.672 43.0435 35 41.9235 33.656C40.8355 32.28 40.2915 30.504 40.2915 28.328C40.2915 27.368 40.3715 26.504 40.5315 25.736C40.8835 23.816 41.5715 22.104 42.5955 20.6C43.6515 19.096 44.9155 17.928 46.3875 17.096C47.8595 16.264 49.4435 15.848 51.1395 15.848C53.2835 15.848 54.9155 16.504 56.0355 17.816C57.1875 19.096 57.7635 20.824 57.7635 23C57.7635 23.864 57.6675 24.776 57.4755 25.736C57.0595 27.848 56.2915 29.656 55.1715 31.16C54.0835 32.632 52.7875 33.752 51.2835 34.52C49.8115 35.288 48.3075 35.672 46.7715 35.672ZM48.4035 34.472C49.4275 34.472 50.3075 33.88 51.0435 32.696C51.8115 31.512 52.3715 29.896 52.7235 27.848C52.9475 26.6 53.0595 25.336 53.0595 24.056C53.0595 21.976 52.7395 20.28 52.0995 18.968C51.4915 17.656 50.6435 17 49.5555 17C48.5955 17 47.7315 17.56 46.9635 18.68C46.2275 19.8 45.6675 21.464 45.2835 23.672C45.0595 24.92 44.9475 26.184 44.9475 27.464C44.9475 29.544 45.2515 31.24 45.8595 32.552C46.4675 33.832 47.3155 34.472 48.4035 34.472ZM63.2933 35.432C61.7573 35.432 60.9893 34.52 60.9893 32.696C60.9893 32.056 61.0533 31.4 61.1813 30.728L65.5973 6.728C65.6933 6.088 65.7413 5.56 65.7413 5.144C65.7413 4.216 65.4373 3.752 64.8293 3.752C64.4453 3.752 63.7733 3.976 62.8133 4.424H62.7653C62.6053 4.424 62.5093 4.344 62.4773 4.184C62.4453 3.992 62.4933 3.88 62.6213 3.848L70.0613 0.199999H70.1573C70.2853 0.199999 70.3973 0.247998 70.4933 0.343997C70.6213 0.439998 70.6693 0.519999 70.6373 0.584L65.2613 30.728C65.1653 31.208 65.1172 31.608 65.1172 31.928C65.1172 32.632 65.3572 32.984 65.8372 32.984C66.1573 32.984 66.5093 32.84 66.8933 32.552C67.3093 32.264 67.8053 31.848 68.3813 31.304C68.4453 31.24 68.5093 31.208 68.5733 31.208C68.6693 31.208 68.7493 31.272 68.8133 31.4C68.8773 31.496 68.8613 31.592 68.7653 31.688C67.6773 32.968 66.7173 33.912 65.8853 34.52C65.0533 35.128 64.1893 35.432 63.2933 35.432ZM88.3046 15.992C89.1046 15.992 89.7286 16.28 90.1766 16.856C90.6246 17.432 90.8486 18.264 90.8486 19.352C90.8486 21.72 89.5526 25.288 86.9606 30.056C84.3686 34.824 81.4086 39.08 78.0806 42.824C74.7526 46.6 72.0326 48.488 69.9206 48.488C68.0326 48.488 67.0886 47.736 67.0886 46.232C67.0886 45.336 67.3446 44.632 67.8566 44.12C68.3366 43.64 69.0246 43.4 69.9206 43.4C70.4006 43.4 71.0566 43.592 71.8886 43.976C71.9846 44.008 72.2246 44.104 72.6086 44.264C72.9926 44.424 73.3766 44.504 73.7606 44.504C74.3046 44.504 74.8486 44.312 75.3926 43.928C76.2246 43.384 77.2646 42.296 78.5126 40.664V38.408C78.5126 32.168 78.0646 27.336 77.1686 23.912C76.3046 20.456 75.1366 18.728 73.6646 18.728C73.2806 18.728 72.8806 18.872 72.4646 19.16C72.0806 19.448 71.7606 19.8 71.5046 20.216C71.4726 20.312 71.3766 20.36 71.2166 20.36C70.9926 20.36 70.8966 20.264 70.9286 20.072C71.4726 18.92 72.3046 17.96 73.4246 17.192C74.5446 16.424 75.5686 16.04 76.4966 16.04C77.7126 16.04 78.7686 16.76 79.6646 18.2C80.5926 19.608 81.2806 21.56 81.7286 24.056C82.2086 26.52 82.4486 29.288 82.4486 32.36C82.4486 33.576 82.4326 34.504 82.4006 35.144C83.6486 33.16 84.7206 31.32 85.6166 29.624C86.5446 27.896 87.1046 26.632 87.2966 25.832C87.4886 25.064 87.5846 24.408 87.5846 23.864C87.5846 23.192 87.4886 22.648 87.2966 22.232C87.1046 21.816 86.8326 21.336 86.4806 20.792C86.1606 20.312 85.9206 19.928 85.7606 19.64C85.6006 19.32 85.5206 18.92 85.5206 18.44C85.5206 17.704 85.7766 17.112 86.2886 16.664C86.8006 16.216 87.4726 15.992 88.3046 15.992ZM101.607 35.576C99.0146 35.576 96.5666 35.032 94.2626 33.944C93.9426 33.72 93.8466 33.416 93.9746 33.032L95.5106 26.264C95.5106 26.104 95.5906 26.024 95.7506 26.024C95.9426 26.024 96.0546 26.104 96.0866 26.264C97.2706 31.704 99.5426 34.424 102.903 34.424C104.471 34.424 105.735 33.88 106.695 32.792C107.687 31.672 108.183 30.2 108.183 28.376C108.183 26.84 107.735 25.512 106.839 24.392C105.975 23.272 104.711 22.072 103.047 20.792C101.831 19.864 100.871 19.08 100.167 18.44C99.4626 17.8 98.8706 17.048 98.3906 16.184C97.9106 15.32 97.6706 14.36 97.6706 13.304C97.6706 12.856 97.7186 12.392 97.8146 11.912C98.3266 9.512 99.5906 7.672 101.607 6.392C103.655 5.112 105.959 4.472 108.519 4.472C110.407 4.472 112.295 4.856 114.183 5.624C114.631 5.848 114.807 6.12 114.711 6.44L113.991 12.68C113.959 12.776 113.863 12.824 113.703 12.824C113.575 12.824 113.495 12.776 113.463 12.68C112.951 10.44 112.135 8.68 111.015 7.4C109.895 6.12 108.631 5.48 107.223 5.48C106.135 5.48 105.239 5.784 104.535 6.392C103.831 6.968 103.319 7.672 102.999 8.504C102.679 9.304 102.519 10.088 102.519 10.856C102.519 11.816 102.743 12.68 103.191 13.448C103.639 14.216 104.167 14.888 104.775 15.464C105.383 16.008 106.295 16.76 107.511 17.72C109.399 19.192 110.839 20.536 111.831 21.752C112.823 22.968 113.319 24.408 113.319 26.072C113.319 26.616 113.287 27.032 113.223 27.32C112.775 29.752 111.543 31.736 109.527 33.272C107.511 34.808 104.871 35.576 101.607 35.576ZM127.898 15.848C129.114 15.848 130.058 16.056 130.73 16.472C131.402 16.888 131.738 17.464 131.738 18.2C131.738 19.64 130.666 21 128.522 22.28C126.41 23.528 123.85 24.44 120.842 25.016C120.746 25.72 120.698 26.408 120.698 27.08C120.698 29 121.098 30.552 121.898 31.736C122.698 32.888 123.882 33.464 125.45 33.464C126.122 33.464 126.842 33.352 127.609 33.128C128.41 32.872 129.13 32.488 129.77 31.976H129.818C129.914 31.976 129.994 32.024 130.058 32.12C130.154 32.216 130.17 32.296 130.106 32.36C128.954 33.48 127.738 34.296 126.458 34.808C125.178 35.32 123.898 35.576 122.618 35.576C120.41 35.576 118.746 34.904 117.626 33.56C116.538 32.216 115.994 30.52 115.994 28.472C115.994 27.768 116.074 26.984 116.234 26.12C116.554 24.392 117.258 22.744 118.346 21.176C119.466 19.608 120.858 18.328 122.522 17.336C124.186 16.344 125.978 15.848 127.898 15.848ZM126.89 19.448C126.922 19.32 126.938 19.128 126.938 18.872C126.938 18.328 126.794 17.912 126.506 17.624C126.25 17.304 125.882 17.144 125.402 17.144C124.378 17.144 123.466 17.8 122.666 19.112C121.898 20.424 121.322 22.136 120.938 24.248C124.618 23.288 126.602 21.688 126.89 19.448ZM139.678 35.672C137.566 35.672 135.95 35 134.83 33.656C133.742 32.28 133.198 30.504 133.198 28.328C133.198 27.368 133.278 26.504 133.438 25.736C133.79 23.816 134.478 22.104 135.502 20.6C136.558 19.096 137.822 17.928 139.294 17.096C140.766 16.264 142.35 15.848 144.046 15.848C146.19 15.848 147.822 16.504 148.942 17.816C150.094 19.096 150.67 20.824 150.67 23C150.67 23.864 150.574 24.776 150.382 25.736C149.966 27.848 149.198 29.656 148.078 31.16C146.99 32.632 145.694 33.752 144.19 34.52C142.718 35.288 141.214 35.672 139.678 35.672ZM141.31 34.472C142.334 34.472 143.214 33.88 143.95 32.696C144.718 31.512 145.278 29.896 145.63 27.848C145.854 26.6 145.966 25.336 145.966 24.056C145.966 21.976 145.646 20.28 145.006 18.968C144.398 17.656 143.55 17 142.462 17C141.502 17 140.638 17.56 139.87 18.68C139.134 19.8 138.574 21.464 138.19 23.672C137.966 24.92 137.854 26.184 137.854 27.464C137.854 29.544 138.158 31.24 138.766 32.552C139.374 33.832 140.222 34.472 141.31 34.472Z" fill="#EC0868"/>
</svg>
