<svg width="95" height="31" viewBox="0 0 95 31" fill="none" xmlns="http://www.w3.org/2000/svg">
<path d="M1.39 22C1.35 22 1.33 21.94 1.33 21.82C1.33 21.7 1.35 21.64 1.39 21.64C2.13 21.64 2.68 21.59 3.04 21.49C3.42 21.39 3.7 21.2 3.88 20.92C4.06 20.62 4.21 20.17 4.33 19.57L6.76 5.68C6.84 5.2 6.88 4.9 6.88 4.78C6.88 4.46 6.8 4.24 6.64 4.12C6.48 4 6.21 3.94 5.83 3.94H5.47C4.85 3.94 4.2 4.16 3.52 4.6C2.84 5.02 2.23 5.59 1.69 6.31C1.15 7.01 0.76 7.78 0.52 8.62C0.5 8.68 0.43 8.7 0.31 8.68C0.21 8.66 0.17 8.62 0.19 8.56C0.35 7.98 0.59 7.02 0.91 5.68C1.23 4.34 1.46 3.31 1.6 2.59C1.62 2.53 1.69 2.51 1.81 2.53C1.93 2.53 1.98 2.56 1.96 2.62C1.9 3.04 2.29 3.25 3.13 3.25C4.61 3.31 6.44 3.34 8.62 3.34C9.64 3.34 10.77 3.32 12.01 3.28L13.9 3.25C14.5 3.25 14.95 3.2 15.25 3.1C15.55 3 15.76 2.8 15.88 2.5C15.92 2.44 15.99 2.42 16.09 2.44C16.19 2.44 16.23 2.48 16.21 2.56C16.03 3.2 15.78 4.24 15.46 5.68C15.16 7.1 14.98 8.06 14.92 8.56C14.9 8.64 14.83 8.68 14.71 8.68C14.59 8.66 14.54 8.61 14.56 8.53C14.62 8.19 14.65 7.87 14.65 7.57C14.65 6.53 14.36 5.67 13.78 4.99C13.2 4.29 12.45 3.94 11.53 3.94H11.2C10.68 3.94 10.33 4.06 10.15 4.3C9.99 4.52 9.85 5 9.73 5.74L7.3 19.57C7.22 20.05 7.18 20.36 7.18 20.5C7.18 20.96 7.34 21.27 7.66 21.43C8 21.57 8.62 21.64 9.52 21.64C9.56 21.64 9.58 21.7 9.58 21.82C9.58 21.94 9.56 22 9.52 22C8.82 22 8.27 21.99 7.87 21.97L5.44 21.94L3.1 21.97C2.7 21.99 2.13 22 1.39 22ZM16.8611 22.42C15.5411 22.42 14.5311 22 13.8311 21.16C13.1511 20.3 12.8111 19.19 12.8111 17.83C12.8111 17.23 12.8611 16.69 12.9611 16.21C13.1811 15.01 13.6111 13.94 14.2511 13C14.9111 12.06 15.7011 11.33 16.6211 10.81C17.5411 10.29 18.5311 10.03 19.5911 10.03C20.9311 10.03 21.9511 10.44 22.6511 11.26C23.3711 12.06 23.7311 13.14 23.7311 14.5C23.7311 15.04 23.6711 15.61 23.5511 16.21C23.2911 17.53 22.8111 18.66 22.1111 19.6C21.4311 20.52 20.6211 21.22 19.6811 21.7C18.7611 22.18 17.8211 22.42 16.8611 22.42ZM17.8811 21.67C18.5211 21.67 19.0711 21.3 19.5311 20.56C20.0111 19.82 20.3611 18.81 20.5811 17.53C20.7211 16.75 20.7911 15.96 20.7911 15.16C20.7911 13.86 20.5911 12.8 20.1911 11.98C19.8111 11.16 19.2811 10.75 18.6011 10.75C18.0011 10.75 17.4611 11.1 16.9811 11.8C16.5211 12.5 16.1711 13.54 15.9311 14.92C15.7911 15.7 15.7211 16.49 15.7211 17.29C15.7211 18.59 15.9111 19.65 16.2911 20.47C16.6711 21.27 17.2011 21.67 17.8811 21.67ZM29.1072 22.42C27.7872 22.42 26.7772 22 26.0772 21.16C25.3972 20.3 25.0572 19.19 25.0572 17.83C25.0572 17.23 25.1072 16.69 25.2072 16.21C25.4272 15.01 25.8572 13.94 26.4972 13C27.1572 12.06 27.9472 11.33 28.8672 10.81C29.7872 10.29 30.7772 10.03 31.8372 10.03C33.1772 10.03 34.1972 10.44 34.8972 11.26C35.6172 12.06 35.9772 13.14 35.9772 14.5C35.9772 15.04 35.9172 15.61 35.7972 16.21C35.5372 17.53 35.0572 18.66 34.3572 19.6C33.6772 20.52 32.8672 21.22 31.9272 21.7C31.0072 22.18 30.0672 22.42 29.1072 22.42ZM30.1272 21.67C30.7672 21.67 31.3172 21.3 31.7772 20.56C32.2572 19.82 32.6072 18.81 32.8272 17.53C32.9672 16.75 33.0372 15.96 33.0372 15.16C33.0372 13.86 32.8372 12.8 32.4372 11.98C32.0572 11.16 31.5272 10.75 30.8472 10.75C30.2472 10.75 29.7072 11.1 29.2272 11.8C28.7672 12.5 28.4172 13.54 28.1772 14.92C28.0372 15.7 27.9672 16.49 27.9672 17.29C27.9672 18.59 28.1572 19.65 28.5372 20.47C28.9172 21.27 29.4472 21.67 30.1272 21.67ZM39.4333 22.27C38.4733 22.27 37.9933 21.7 37.9933 20.56C37.9933 20.16 38.0333 19.75 38.1133 19.33L40.8733 4.33C40.9333 3.93 40.9633 3.6 40.9633 3.34C40.9633 2.76 40.7733 2.47 40.3933 2.47C40.1533 2.47 39.7333 2.61 39.1333 2.89H39.1033C39.0033 2.89 38.9433 2.84 38.9233 2.74C38.9033 2.62 38.9333 2.55 39.0133 2.53L43.6633 0.249999H43.7233C43.8033 0.249999 43.8733 0.279999 43.9333 0.339998C44.0133 0.399999 44.0433 0.449999 44.0233 0.49L40.6633 19.33C40.6033 19.63 40.5733 19.88 40.5733 20.08C40.5733 20.52 40.7233 20.74 41.0233 20.74C41.2233 20.74 41.4433 20.65 41.6833 20.47C41.9433 20.29 42.2533 20.03 42.6133 19.69C42.6533 19.65 42.6933 19.63 42.7333 19.63C42.7933 19.63 42.8433 19.67 42.8833 19.75C42.9233 19.81 42.9133 19.87 42.8533 19.93C42.1733 20.73 41.5733 21.32 41.0533 21.7C40.5333 22.08 39.9933 22.27 39.4333 22.27ZM55.0654 10.12C55.5654 10.12 55.9554 10.3 56.2354 10.66C56.5154 11.02 56.6554 11.54 56.6554 12.22C56.6554 13.7 55.8454 15.93 54.2254 18.91C52.6054 21.89 50.7554 24.55 48.6754 26.89C46.5954 29.25 44.8954 30.43 43.5754 30.43C42.3954 30.43 41.8054 29.96 41.8054 29.02C41.8054 28.46 41.9654 28.02 42.2854 27.7C42.5854 27.4 43.0154 27.25 43.5754 27.25C43.8754 27.25 44.2854 27.37 44.8054 27.61C44.8654 27.63 45.0154 27.69 45.2554 27.79C45.4954 27.89 45.7354 27.94 45.9754 27.94C46.3154 27.94 46.6554 27.82 46.9954 27.58C47.5154 27.24 48.1654 26.56 48.9454 25.54V24.13C48.9454 20.23 48.6654 17.21 48.1054 15.07C47.5654 12.91 46.8354 11.83 45.9154 11.83C45.6754 11.83 45.4254 11.92 45.1654 12.1C44.9254 12.28 44.7254 12.5 44.5654 12.76C44.5454 12.82 44.4854 12.85 44.3854 12.85C44.2454 12.85 44.1854 12.79 44.2054 12.67C44.5454 11.95 45.0654 11.35 45.7654 10.87C46.4654 10.39 47.1054 10.15 47.6854 10.15C48.4454 10.15 49.1054 10.6 49.6654 11.5C50.2454 12.38 50.6754 13.6 50.9554 15.16C51.2554 16.7 51.4054 18.43 51.4054 20.35C51.4054 21.11 51.3954 21.69 51.3754 22.09C52.1554 20.85 52.8254 19.7 53.3854 18.64C53.9654 17.56 54.3154 16.77 54.4354 16.27C54.5554 15.79 54.6154 15.38 54.6154 15.04C54.6154 14.62 54.5554 14.28 54.4354 14.02C54.3154 13.76 54.1454 13.46 53.9254 13.12C53.7254 12.82 53.5754 12.58 53.4754 12.4C53.3754 12.2 53.3254 11.95 53.3254 11.65C53.3254 11.19 53.4854 10.82 53.8054 10.54C54.1254 10.26 54.5454 10.12 55.0654 10.12ZM63.3791 22.36C61.7591 22.36 60.2291 22.02 58.7891 21.34C58.5891 21.2 58.5291 21.01 58.6091 20.77L59.5691 16.54C59.5691 16.44 59.6191 16.39 59.7191 16.39C59.8391 16.39 59.9091 16.44 59.9291 16.54C60.6691 19.94 62.0891 21.64 64.1891 21.64C65.1691 21.64 65.9591 21.3 66.5591 20.62C67.1791 19.92 67.4891 19 67.4891 17.86C67.4891 16.9 67.2091 16.07 66.6491 15.37C66.1091 14.67 65.3191 13.92 64.2791 13.12C63.5191 12.54 62.9191 12.05 62.4791 11.65C62.0391 11.25 61.6691 10.78 61.3691 10.24C61.0691 9.7 60.9191 9.1 60.9191 8.44C60.9191 8.16 60.9491 7.87 61.0091 7.57C61.3291 6.07 62.1191 4.92 63.3791 4.12C64.6591 3.32 66.0991 2.92 67.6991 2.92C68.8791 2.92 70.0591 3.16 71.2391 3.64C71.5191 3.78 71.6291 3.95 71.5691 4.15L71.1191 8.05C71.0991 8.11 71.0391 8.14 70.9391 8.14C70.8591 8.14 70.8091 8.11 70.7891 8.05C70.4691 6.65 69.9591 5.55 69.2591 4.75C68.5591 3.95 67.7691 3.55 66.8891 3.55C66.2091 3.55 65.6491 3.74 65.2091 4.12C64.7691 4.48 64.4491 4.92 64.2491 5.44C64.0491 5.94 63.9491 6.43 63.9491 6.91C63.9491 7.51 64.0891 8.05 64.3691 8.53C64.6491 9.01 64.9791 9.43 65.3591 9.79C65.7391 10.13 66.3091 10.6 67.0691 11.2C68.2491 12.12 69.1491 12.96 69.7691 13.72C70.3891 14.48 70.6991 15.38 70.6991 16.42C70.6991 16.76 70.6791 17.02 70.6391 17.2C70.3591 18.72 69.5891 19.96 68.3291 20.92C67.0691 21.88 65.4191 22.36 63.3791 22.36ZM79.8109 10.03C80.5709 10.03 81.1609 10.16 81.5809 10.42C82.0009 10.68 82.2109 11.04 82.2109 11.5C82.2109 12.4 81.5409 13.25 80.2009 14.05C78.8809 14.83 77.2809 15.4 75.4009 15.76C75.3409 16.2 75.3109 16.63 75.3109 17.05C75.3109 18.25 75.5609 19.22 76.0609 19.96C76.5609 20.68 77.3009 21.04 78.2809 21.04C78.7009 21.04 79.1509 20.97 79.6309 20.83C80.1309 20.67 80.5809 20.43 80.9809 20.11H81.0109C81.0709 20.11 81.1209 20.14 81.1609 20.2C81.2209 20.26 81.2309 20.31 81.1909 20.35C80.4709 21.05 79.7109 21.56 78.9109 21.88C78.1109 22.2 77.3109 22.36 76.5109 22.36C75.1309 22.36 74.0909 21.94 73.3909 21.1C72.7109 20.26 72.3709 19.2 72.3709 17.92C72.3709 17.48 72.4209 16.99 72.5209 16.45C72.7209 15.37 73.1609 14.34 73.8409 13.36C74.5409 12.38 75.4109 11.58 76.4509 10.96C77.4909 10.34 78.6109 10.03 79.8109 10.03ZM79.1809 12.28C79.2009 12.2 79.2109 12.08 79.2109 11.92C79.2109 11.58 79.1209 11.32 78.9409 11.14C78.7809 10.94 78.5509 10.84 78.2509 10.84C77.6109 10.84 77.0409 11.25 76.5409 12.07C76.0609 12.89 75.7009 13.96 75.4609 15.28C77.7609 14.68 79.0009 13.68 79.1809 12.28ZM87.1736 22.42C85.8536 22.42 84.8436 22 84.1436 21.16C83.4636 20.3 83.1236 19.19 83.1236 17.83C83.1236 17.23 83.1736 16.69 83.2736 16.21C83.4936 15.01 83.9236 13.94 84.5636 13C85.2236 12.06 86.0136 11.33 86.9336 10.81C87.8536 10.29 88.8436 10.03 89.9036 10.03C91.2436 10.03 92.2636 10.44 92.9636 11.26C93.6836 12.06 94.0436 13.14 94.0436 14.5C94.0436 15.04 93.9836 15.61 93.8636 16.21C93.6036 17.53 93.1236 18.66 92.4236 19.6C91.7436 20.52 90.9336 21.22 89.9936 21.7C89.0736 22.18 88.1336 22.42 87.1736 22.42ZM88.1936 21.67C88.8336 21.67 89.3836 21.3 89.8436 20.56C90.3236 19.82 90.6736 18.81 90.8936 17.53C91.0336 16.75 91.1036 15.96 91.1036 15.16C91.1036 13.86 90.9036 12.8 90.5036 11.98C90.1236 11.16 89.5936 10.75 88.9136 10.75C88.3136 10.75 87.7736 11.1 87.2936 11.8C86.8336 12.5 86.4836 13.54 86.2436 14.92C86.1036 15.7 86.0336 16.49 86.0336 17.29C86.0336 18.59 86.2236 19.65 86.6036 20.47C86.9836 21.27 87.5136 21.67 88.1936 21.67Z" fill="#EC0868"/>
</svg>
